<svg xmlns="http://www.w3.org/2000/svg" width="452.693" height="443.368" viewBox="0 0 452.693 443.368">
  <g id="Grupo_41" data-name="Grupo 41" transform="translate(-506.948 -1035.853)">
    <g id="Grupo_39" data-name="Grupo 39" transform="matrix(0.985, -0.174, 0.174, 0.985, -207.089, 146.96)">
      <g id="sended-message" transform="translate(536.85 1066.5)">
        <path id="Trazado_27" data-name="Trazado 27" d="M92.9,11.382C179.606,24.66,245.234-5.57,287.112.928s126.477,40.967,100.76,209.92S240.315,386.3,194.221,379.237C-21.212,346.039-60.7-12.21,92.9,11.382Z" fill="#efefef"/>
        <path id="Trazado_29" data-name="Trazado 29" d="M214.913,23.825a11.913,11.913,0,1,1,8.427-3.485A11.875,11.875,0,0,1,214.913,23.825Zm0-15.61A3.7,3.7,0,1,0,217.528,9.3,3.686,3.686,0,0,0,214.913,8.215Z" transform="translate(-62 4)" fill="#565353"/>
        <path id="Trazado_36" data-name="Trazado 36" d="M214.913,23.825a11.913,11.913,0,1,1,8.427-3.485A11.875,11.875,0,0,1,214.913,23.825Zm0-15.61A3.7,3.7,0,1,0,217.528,9.3,3.686,3.686,0,0,0,214.913,8.215Z" transform="translate(172 104)" fill="#565353"/>
        <path id="Trazado_30" data-name="Trazado 30" d="M152.913,340.825a11.913,11.913,0,1,1,8.428-3.485A11.879,11.879,0,0,1,152.913,340.825Zm0-15.61a3.7,3.7,0,1,0,2.616,1.082A3.685,3.685,0,0,0,152.913,325.215Z" fill="#565353"/>
        <path id="Trazado_31" data-name="Trazado 31" d="M160.727,57.027a4.1,4.1,0,0,1-2.906-1.2l-4.9-4.9-4.9,4.9a4.109,4.109,0,0,1-5.811-5.812l7.809-7.809a4.109,4.109,0,0,1,5.811,0l7.808,7.809a4.109,4.109,0,0,1-2.9,7.015Z" transform="translate(-66 17)" fill="#52cec2"/>
        <path id="Trazado_32" data-name="Trazado 32" d="M291.727,343.027a4.1,4.1,0,0,1-2.906-1.2l-4.9-4.9-4.9,4.9a4.109,4.109,0,0,1-5.811-5.812l7.809-7.809a4.11,4.11,0,0,1,5.811,0l7.808,7.809a4.109,4.109,0,0,1-2.9,7.015Z" fill="#52cec2"/>
        <path id="Trazado_33" data-name="Trazado 33" d="M70.727,345.027a4.1,4.1,0,0,1-2.906-1.2l-4.9-4.9-4.9,4.9a4.109,4.109,0,1,1-5.811-5.812l7.809-7.809a4.11,4.11,0,0,1,5.811,0l7.809,7.809a4.109,4.109,0,0,1-2.906,7.015Z" fill="#52cec2"/>
        <g id="Grupo_40" data-name="Grupo 40" transform="translate(-23.828 -169.813) rotate(22)">
          <g id="Trazado_34" data-name="Trazado 34" transform="translate(440.83 332.822) rotate(180)" fill="#fff">
            <path d="M 204.1720733642578 165 L 33.95303726196289 165 C 30.71625709533691 165 28.59450721740723 163.1092224121094 27.3845386505127 161.5230712890625 C 25.48613357543945 159.0344085693359 24.44063186645508 155.5654144287109 24.44063186645508 151.7550964355469 L 24.44063186645508 151.4529113769531 L 24.39522743225098 151.1541290283203 L 4.002395629882812 16.95845603942871 C 4.03192138671875 15.18865776062012 4.335460662841797 13.47781085968018 4.905757904052734 11.86860179901123 C 5.4736328125 10.26625728607178 6.278570175170898 8.836789131164551 7.298163890838623 7.619914054870605 C 9.254133224487305 5.285601615905762 11.79388236999512 4.000007629394531 14.44960117340088 4.000007629394531 L 179.1750030517578 4.000007629394531 C 181.8307189941406 4.000007629394531 184.3704833984375 5.28557014465332 186.3264465332031 7.619914054870605 C 187.3460388183594 8.836789131164551 188.1509704589844 10.26625728607178 188.7188568115234 11.86860179901123 C 189.3198547363281 13.56444549560547 189.6246032714844 15.37328910827637 189.6246032714844 17.24491310119629 L 189.6246032714844 17.58628845214844 L 189.6824493408203 17.92272567749023 L 212.7498321533203 152.0841674804688 C 212.7003479003906 155.9212036132812 211.7848968505859 159.3193664550781 210.1594085693359 161.6815643310547 C 208.6441955566406 163.883544921875 206.6297607421875 165 204.1720733642578 165 Z" stroke="none"/>
            <path d="M 204.1720428466797 161 C 207.3501434326172 161 208.6134338378906 156.0546875 208.7410278320312 152.3744812011719 L 185.7402954101562 18.60054397583008 L 185.6246185302734 17.92768669128418 L 185.6246185302734 17.24493598937988 C 185.6246185302734 12.32007884979248 182.6107940673828 8.000007629394531 179.1750183105469 8.000007629394531 L 14.44961929321289 8.000007629394531 C 11.13734912872314 8.000007629394531 8.217242240905762 12.01525497436523 8.011569976806641 16.71651458740234 L 28.34983444213867 150.55322265625 L 28.44061851501465 151.1507263183594 L 28.44061851501465 151.7551116943359 C 28.44061851501465 156.2995147705078 30.50251197814941 161 33.95301055908203 161 L 204.1720428466797 161 M 204.1720428466797 169 L 33.95301055908203 169 C 25.97272682189941 169 20.44061851501465 161.2791900634766 20.44061851501465 151.7551116943359 L 1.227678603754612e-05 17.24493598937988 C 1.227678603754612e-05 7.720829010009766 6.469297885894775 7.62939453125e-06 14.44961929321289 7.62939453125e-06 L 179.1750183105469 7.62939453125e-06 C 187.1553039550781 7.62939453125e-06 193.6246185302734 7.720829010009766 193.6246185302734 17.24493598937988 L 216.7519378662109 151.7551116943359 C 216.7519378662109 161.2791900634766 212.1523284912109 169 204.1720428466797 169 Z" stroke="none" fill="#707070"/>
          </g>
          <g id="Trazado_35" data-name="Trazado 35" transform="translate(478.83 332.822) rotate(180)" fill="#fff">
            <path d="M 189.761962890625 143 L 13.0590877532959 143 C 10.31393146514893 143 8.111868858337402 142.0135345458984 6.514119148254395 140.0680084228516 C 4.957683563232422 138.1727752685547 4.072548389434814 135.4560852050781 4.004263877868652 132.3852996826172 L 27.92665100097656 15.80403900146484 L 28.0083065032959 15.40616416931152 L 28.0083065032959 15.00000762939453 C 28.0083065032959 12.0618200302124 29.15249443054199 9.299476623535156 31.2301197052002 7.221851348876953 C 33.30774307250977 5.144195079803467 36.07008743286133 4.000007629394531 39.00830841064453 4.000007629394531 L 210.00830078125 4.000007629394531 C 212.9465179443359 4.000007629394531 215.7088623046875 5.144195079803467 217.7864990234375 7.221851348876953 C 219.7854919433594 9.220855712890625 220.9203796386719 11.85383605957031 221.0034027099609 14.66733169555664 L 199.853271484375 131.2861938476562 L 199.7890625 131.6402282714844 L 199.7890625 132 C 199.7890625 135.0740966796875 198.7716522216797 137.8845977783203 196.9242706298828 139.913818359375 C 195.086181640625 141.9328155517578 192.6094970703125 143 189.761962890625 143 Z" stroke="none"/>
            <path d="M 189.7619781494141 139 C 193.9030151367188 139 195.7890777587891 135.3713989257812 195.7890777587891 132 L 195.7890777587891 131.2804412841797 L 195.9174652099609 130.5724029541016 L 216.9840087890625 14.41422462463379 C 216.6855621337891 10.82735443115234 213.6709289550781 8.000007629394531 210.00830078125 8.000007629394531 L 39.00829315185547 8.000007629394531 C 35.14847183227539 8.000007629394531 32.00829315185547 11.14018630981445 32.00829315185547 15.00000762939453 L 32.00829315185547 15.81232929229736 L 31.84500694274902 16.60807991027832 L 8.01901912689209 132.7196807861328 C 8.14216136932373 135.0486602783203 8.956717491149902 139 13.05907917022705 139 L 189.7619781494141 139 M 189.7619781494141 147 L 13.05907917022705 147 C 4.774828910827637 147 7.533481948485132e-06 140.2842559814453 7.533481948485132e-06 132 L 24.00829315185547 15.00000762939453 C 24.00829315185547 6.715757846832275 30.72404289245605 7.62939453125e-06 39.00829315185547 7.62939453125e-06 L 210.00830078125 7.62939453125e-06 C 218.2925720214844 7.62939453125e-06 225.00830078125 6.715757846832275 225.00830078125 15.00000762939453 L 203.7890777587891 132 C 203.7890777587891 140.2842559814453 198.0462188720703 147 189.7619781494141 147 Z" stroke="none" fill="#707070"/>
          </g>
          <path id="Trazado_37" data-name="Trazado 37" d="M0,0S4.783,12.951,25.467,18.34,62.556,8.271,62.556,8.271" transform="translate(389.33 299.322) rotate(180)" fill="none" stroke="#707070" stroke-width="10"/>
          <line id="Línea_16" data-name="Línea 16" y1="20" x2="5" transform="translate(394.169 253.279) rotate(180)" fill="none" stroke="#707070" stroke-width="10"/>
          <line id="Línea_17" data-name="Línea 17" y1="20" x2="5" transform="translate(344.271 246.28) rotate(180)" fill="none" stroke="#707070" stroke-width="10"/>
        </g>
      </g>
    </g>
    <line id="Línea_18" data-name="Línea 18" y1="27" x2="16" transform="matrix(-0.921, -0.391, 0.391, -0.921, 849.998, 1164.095)" fill="none" stroke="#707070" stroke-width="10"/>
    <line id="Línea_19" data-name="Línea 19" y1="32" transform="matrix(-0.921, -0.391, 0.391, -0.921, 805.509, 1133.261)" fill="none" stroke="#707070" stroke-width="10"/>
    <line id="Línea_20" data-name="Línea 20" x1="19" y1="24" transform="matrix(-0.921, -0.391, 0.391, -0.921, 761.517, 1131.969)" fill="none" stroke="#707070" stroke-width="10"/>
  </g>
</svg>
